<?xml version="1.0" encoding="UTF-8"?>
<svg version="1.1" xmlns="http://www.w3.org/2000/svg" width="512" height="512">
<path d="M0 0 C6.44892479 3.70868201 10.17891918 8.65126794 12.62890625 15.640625 C14.99267014 25.22156148 12.80864355 32.32211978 7.9296875 40.6315918 C6.49854715 42.90396462 5.03048456 45.14568766 3.5390625 47.37890625 C3.03246094 48.14912109 2.52585937 48.91933594 2.00390625 49.71289062 C0.77150993 51.58473787 -0.46675598 53.45238094 -1.7109375 55.31640625 C-0.64875 55.05085938 0.4134375 54.7853125 1.5078125 54.51171875 C10.0078125 52.38671875 10.0078125 52.38671875 12.14819336 51.85522461 C13.57839164 51.49526936 15.00633577 51.12623935 16.43188477 50.74829102 C25.11113398 48.4732865 33.09754206 48.30454428 41.2890625 52.31640625 C47.42965974 56.06007016 51.254421 61.44724046 53.2890625 68.31640625 C54.46566158 78.09043546 53.85458803 85.45509497 47.81640625 93.20703125 C39.31581477 102.77270866 25.15676388 104.34338866 13.2890625 107.31640625 C16.39391379 109.91333992 19.72945838 111.59404041 23.33154297 113.37329102 C32.12525703 117.75312429 38.98258778 121.83623703 43.2265625 131.06640625 C45.47017314 138.26289321 45.39356286 145.73817403 42.2890625 152.62890625 C38.45672082 159.34360069 32.87781774 164.56703813 25.40234375 166.875 C11.94529459 169.68580694 -0.1560183 162.32897197 -11.828125 156.38671875 C-13.47846237 155.55658768 -13.47846237 155.55658768 -15.16213989 154.70968628 C-18.63967554 152.95934527 -22.11301172 151.20087346 -25.5859375 149.44140625 C-27.90463722 148.27021802 -30.22364553 147.09964052 -32.54296875 145.9296875 C-33.67099915 145.360224 -34.79902954 144.7907605 -35.96124268 144.20404053 C-38.19119341 143.08318336 -40.42420225 141.96838807 -42.66033936 140.85992432 C-47.20374016 138.60733704 -51.71080514 136.3609167 -56.08691406 133.79589844 C-62.47099851 130.16043813 -67.4132008 128.66860973 -74.67578125 130.48828125 C-76.88756304 131.12900591 -79.07492718 131.82090328 -81.26239014 132.5402832 C-84.87853249 133.68650217 -88.54545516 134.61098089 -92.21792603 135.5579834 C-95.21719474 136.33263847 -98.20973572 137.1292588 -101.20117188 137.93359375 C-102.19721436 138.20139648 -103.19325684 138.46919922 -104.21948242 138.74511719 C-105.2272876 139.01614258 -106.23509277 139.28716797 -107.2734375 139.56640625 C-109.36386924 140.12653746 -111.45436367 140.68643475 -113.54492188 141.24609375 C-118.60098516 142.60017666 -123.65619669 143.95739532 -128.7109375 145.31640625 C-124.0412493 150.91891549 -119.07008007 156.11798254 -113.91796875 161.27734375 C-113.09012375 162.10851715 -112.26227875 162.93969055 -111.40934753 163.79605103 C-109.67012484 165.54031043 -107.92956772 167.28324018 -106.18774414 169.02490234 C-103.51615815 171.6986916 -100.85268909 174.38039669 -98.18945312 177.0625 C-96.49528105 178.75960326 -94.80063621 180.45623473 -93.10546875 182.15234375 C-91.9101226 183.35846817 -91.9101226 183.35846817 -90.69062805 184.58895874 C-89.94943222 185.32707794 -89.20823639 186.06519714 -88.44458008 186.82568359 C-87.4691198 187.8032814 -87.4691198 187.8032814 -86.47395325 188.80062866 C-83.01497104 191.77453727 -79.16325255 191.57905104 -74.78369141 191.85717773 C-74.08237091 191.90287903 -73.38105042 191.94858032 -72.65847778 191.9956665 C-71.13462933 192.09450955 -69.61066264 192.19154259 -68.08659744 192.2869854 C-65.66295572 192.43903986 -63.2397081 192.59636928 -60.8164978 192.75514221 C-53.92582786 193.20559276 -47.03451926 193.64593848 -40.14306641 194.08422852 C-35.92471957 194.35287934 -31.70676996 194.62720967 -27.4889946 194.90468025 C-25.89221727 195.008535 -24.29529654 195.11021169 -22.69823074 195.20953178 C7.55663426 197.09122284 7.55663426 197.09122284 16.0390625 206.06640625 C21.01295921 212.12450067 22.89835113 217.88231942 22.64453125 225.7265625 C21.75102836 232.23636931 19.02565358 238.71138715 14.2890625 243.31640625 C8.35418808 247.54184422 4.04409315 249.44634088 -3.34765625 249.4140625 C-4.64638672 249.41083984 -5.94511719 249.40761719 -7.28320312 249.40429688 C-8.65494858 249.39594156 -10.02669337 249.38747662 -11.3984375 249.37890625 C-12.78189945 249.3738896 -14.16536313 249.36932698 -15.54882812 249.36523438 C-18.93624145 249.35343154 -22.32356783 249.33696644 -25.7109375 249.31640625 C-25.15631836 249.84484131 -24.60169922 250.37327637 -24.03027344 250.91772461 C-21.49371522 253.34952117 -18.9774164 255.80134372 -16.4609375 258.25390625 C-15.58824219 259.08470703 -14.71554687 259.91550781 -13.81640625 260.77148438 C-7.20438838 267.2573187 -2.45030794 273.74659921 -1.67578125 283.2109375 C-1.80920766 291.20169724 -3.8239286 297.46199281 -9.57421875 303.1640625 C-15.47267948 308.57376189 -19.75160944 310.610387 -27.8984375 310.75390625 C-29.12949219 310.79386719 -30.36054688 310.83382813 -31.62890625 310.875 C-41.75874704 310.1024489 -48.71253578 302.98547862 -55.3359375 296.00390625 C-56.14933594 295.16794922 -56.96273438 294.33199219 -57.80078125 293.47070312 C-59.78286808 291.43031963 -61.75221202 289.37918301 -63.7109375 287.31640625 C-63.68999023 288.15300781 -63.66904297 288.98960937 -63.64746094 289.8515625 C-63.57881784 292.99002934 -63.52891187 296.12811041 -63.49121094 299.26708984 C-63.46147705 301.27988252 -63.41062021 303.29232759 -63.359375 305.3046875 C-63.28360999 312.84330589 -63.58400579 317.93701836 -67.7109375 324.31640625 C-68.2678125 325.20328125 -68.8246875 326.09015625 -69.3984375 327.00390625 C-74.86906987 332.47453862 -81.64869186 335.39102731 -89.3359375 335.62890625 C-97.72871679 335.50530125 -104.22869006 332.45331011 -110.140625 326.5859375 C-116.27032097 317.72684954 -116.63850291 308.49412463 -117.2734375 298.06640625 C-117.39030904 296.37049319 -117.50883465 294.67469341 -117.62890625 292.97900391 C-118.23087434 284.33858516 -118.75126328 275.69319822 -119.26853943 267.04736328 C-119.51644924 262.93149443 -119.77279275 258.81616383 -120.02902222 254.70080566 C-120.20873532 251.72783656 -120.37167408 248.75426539 -120.53344727 245.78027344 C-120.64407193 243.94592592 -120.75528891 242.111614 -120.8671875 240.27734375 C-120.90778793 239.442565 -120.94838837 238.60778625 -120.99021912 237.74771118 C-121.04049759 236.9716452 -121.09077606 236.19557922 -121.14257812 235.39599609 C-121.18016235 234.72531097 -121.21774658 234.05462585 -121.25646973 233.36361694 C-122.32149756 228.56605703 -125.51408565 225.26582956 -128.90698242 221.89331055 C-129.74762741 221.05281662 -130.5882724 220.21232269 -131.45439148 219.34635925 C-132.35760635 218.45346695 -133.26082123 217.56057465 -134.19140625 216.640625 C-135.11939529 215.71546585 -136.04738434 214.7903067 -137.00349426 213.83711243 C-139.46010325 211.3881074 -141.92266043 208.94517065 -144.38653564 206.503479 C-146.90391238 204.00663072 -149.41557478 201.50404854 -151.92773438 199.00195312 C-156.84991359 194.10116662 -161.77840505 189.20677172 -166.7109375 184.31640625 C-168.38607442 187.40685108 -169.40933179 190.43159834 -170.34667969 193.81591797 C-170.65329529 194.9174118 -170.95991089 196.01890564 -171.27581787 197.15377808 C-171.76190521 198.93197433 -171.76190521 198.93197433 -172.2578125 200.74609375 C-172.76009369 202.58072678 -172.76009369 202.58072678 -173.27252197 204.4524231 C-173.97774 207.03906781 -174.68053189 209.62626159 -175.38037109 212.21435547 C-176.27617162 215.52250524 -177.1915992 218.82488588 -178.11155319 222.12638664 C-178.98739264 225.28733207 -179.83965394 228.45463646 -180.6953125 231.62109375 C-181.02746765 232.80250946 -181.3596228 233.98392517 -181.70184326 235.20114136 C-181.99585022 236.30893951 -182.28985718 237.41673767 -182.59277344 238.55810547 C-182.99009674 240.01227371 -182.99009674 240.01227371 -183.39544678 241.49581909 C-183.91775535 246.16542348 -181.97866233 250.00742291 -179.96191406 254.13330078 C-179.62637512 254.82425842 -179.29083618 255.51521606 -178.94512939 256.22711182 C-178.40381378 257.32705475 -178.40381378 257.32705475 -177.8515625 258.44921875 C-177.47022156 259.23117615 -177.08888062 260.01313354 -176.69598389 260.81878662 C-175.45460603 263.36145621 -174.20777964 265.90141238 -172.9609375 268.44140625 C-172.10261334 270.19795668 -171.24454226 271.9546308 -170.38671875 273.71142578 C-166.44960949 281.76316425 -162.48577535 289.80036093 -158.4453125 297.80078125 C-158.12242249 298.44115326 -157.79953247 299.08152527 -157.46685791 299.74130249 C-155.98326865 302.68141031 -154.49249047 305.61721068 -152.98925781 308.54736328 C-147.70987796 318.95542245 -143.54019695 328.17096065 -146.7734375 339.87890625 C-149.38958638 346.81896787 -154.00184215 351.65533239 -160.3984375 355.31640625 C-167.85130778 358.65266836 -175.38060913 358.42135773 -183.0234375 355.75390625 C-191.96034667 352.24464872 -196.29468372 344.12677065 -200.1484375 335.87890625 C-200.59380859 334.95658203 -201.03917969 334.03425781 -201.49804688 333.08398438 C-202.58222019 330.83403331 -203.65267255 328.5786277 -204.7109375 326.31640625 C-206.25625008 329.19169421 -207.25013208 331.93579145 -208.078125 335.08984375 C-208.32433594 335.99734375 -208.57054687 336.90484375 -208.82421875 337.83984375 C-209.32956503 339.73165289 -209.82962147 341.62488347 -210.32421875 343.51953125 C-212.29752094 350.737932 -214.88198885 356.0878486 -220.6484375 361.06640625 C-221.29683594 361.63875 -221.94523437 362.21109375 -222.61328125 362.80078125 C-229.22763149 367.57986485 -236.92392656 367.06869713 -244.7109375 366.31640625 C-252.63668556 364.15959766 -257.57770236 359.26939947 -261.7109375 352.31640625 C-265.69427148 342.79104238 -263.56045374 333.34046505 -260.7109375 323.81640625 C-260.14655548 321.86903404 -259.58396097 319.92114259 -259.0234375 317.97265625 C-258.77207031 317.12509766 -258.52070313 316.27753906 -258.26171875 315.40429688 C-257.62591348 313.35398496 -257.62591348 313.35398496 -257.7109375 311.31640625 C-258.28013916 311.69974121 -258.84934082 312.08307617 -259.43579102 312.47802734 C-262.04205133 314.22541544 -264.65755813 315.95845472 -267.2734375 317.69140625 C-268.16869141 318.2946875 -269.06394531 318.89796875 -269.98632812 319.51953125 C-277.3354056 324.36507684 -283.64528649 327.37799735 -292.7109375 326.31640625 C-300.15385376 324.76253426 -306.81142594 321.39586793 -311.28515625 315.1015625 C-315.15357693 308.43989823 -316.89347093 301.87832195 -315.25 294.1484375 C-312.4372847 284.53556932 -306.64176234 278.65267617 -298.3671875 273.375 C-297.56882477 272.84932938 -296.77046204 272.32365875 -295.94790649 271.78205872 C-293.37712156 270.09307349 -290.79428084 268.42360407 -288.2109375 266.75390625 C-286.43762916 265.59301296 -284.6653339 264.4305707 -282.89404297 263.26660156 C-279.41400539 260.98057791 -275.93046349 258.70006359 -272.44433594 256.42333984 C-266.52215204 252.54687521 -260.66886205 248.57575563 -254.8359375 244.56640625 C-253.23451972 243.46723704 -251.63296821 242.36826263 -250.03125 241.26953125 C-249.31904297 240.7696167 -248.60683594 240.26970215 -247.87304688 239.75463867 C-245.7109375 238.31640625 -245.7109375 238.31640625 -243.28320312 236.99731445 C-238.58274072 234.334005 -236.24546169 232.26683545 -234.4765625 227.078125 C-233.93754402 225.06212279 -233.43356642 223.03649764 -232.9609375 221.00390625 C-232.39846866 218.85806475 -231.83596844 216.71223147 -231.2734375 214.56640625 C-231.01046875 213.51066406 -230.7475 212.45492187 -230.4765625 211.3671875 C-229.39380642 207.05273596 -228.1934636 202.77751538 -226.9609375 198.50390625 C-226.7743457 197.81192139 -226.58775391 197.11993652 -226.39550781 196.40698242 C-225.4053909 192.90735464 -224.60340362 190.56974544 -221.7109375 188.31640625 C-219.76535034 188.08442688 -219.76535034 188.08442688 -217.58544922 188.1262207 C-211.2314385 187.58400047 -208.0133615 183.74319578 -203.71875 179.359375 C-202.87048141 178.52512497 -202.02221283 177.69087494 -201.14823914 176.8313446 C-198.83796234 174.55014977 -196.54649554 172.25200446 -194.26349258 169.94356537 C-191.86433849 167.52406919 -189.44562472 165.12425145 -187.0300293 162.72119141 C-182.97768967 158.6833811 -178.94245166 154.62905458 -174.91650391 150.56494141 C-170.27046576 145.87536874 -165.59630705 141.21531456 -160.90649796 136.5695467 C-156.87111815 132.57054362 -152.85162892 128.55606931 -148.84486008 124.52839947 C-146.4559305 122.12703707 -144.06201879 119.73131258 -141.65362549 117.34945679 C-138.97188745 114.68806377 -136.31717646 112.00231816 -133.66796875 109.30859375 C-132.87218918 108.52900803 -132.07640961 107.7494223 -131.2565155 106.94621277 C-126.94626261 102.50098862 -124.82612058 99.51378935 -124.84867001 93.20439148 C-124.7109375 91.31640625 -124.7109375 91.31640625 -122.67602539 88.90625 C-118.95314397 86.91008665 -115.36061026 85.86347352 -111.26953125 84.87890625 C-110.46483902 84.67209229 -109.66014679 84.46527832 -108.83106995 84.25219727 C-105.40753306 83.37240543 -101.97692739 82.52191589 -98.54614258 81.67089844 C-96.034247 81.04322219 -93.52697156 80.39911063 -91.01953125 79.75390625 C-90.24653183 79.56836182 -89.47353241 79.38281738 -88.67710876 79.19165039 C-81.07225564 77.22835727 -78.36941597 73.10663899 -74.24609375 66.796875 C-73.82013412 66.15364792 -73.3941745 65.51042084 -72.95530701 64.84770203 C-72.03659491 63.45956335 -71.11991851 62.07007566 -70.20507812 60.67938232 C-67.76027953 56.96434326 -65.29848152 53.26057539 -62.83984375 49.5546875 C-62.33510529 48.79293213 -61.83036682 48.03117676 -61.31033325 47.24633789 C-56.42717986 39.87868804 -51.51365163 32.53186933 -46.56881714 25.20547485 C-45.67198534 23.8752533 -44.77686998 22.54387272 -43.88357544 21.21127319 C-31.3119425 2.46015693 -31.3119425 2.46015693 -25.5234375 -0.05859375 C-24.86988281 -0.35507813 -24.21632813 -0.6515625 -23.54296875 -0.95703125 C-15.65776765 -4.08421122 -7.67384748 -3.49586385 0 0 Z " fill="#000101" transform="translate(458.7109375,145.68359375)"/>
<path d="M0 0 C5.22535429 3.8135919 9.30027787 8.38707829 11.2265625 14.625 C12.02737246 22.94038713 12.29922881 30.68831379 7.2265625 37.625 C-1.1562462 47.72993054 -10.80137575 56.79848572 -20.07545471 66.06745911 C-21.95451278 67.94910341 -23.83337517 69.83094128 -25.71200508 71.71301287 C-30.3225247 76.33107433 -34.93569771 80.94647661 -39.54971066 85.56104751 C-45.07997204 91.09222626 -50.60735034 96.6262828 -56.13469365 102.16037733 C-69.48608787 115.52779096 -82.84252247 128.8901636 -96.19953272 142.25196514 C-102.51912074 148.57389192 -108.83807651 154.89645051 -115.15695684 161.21908464 C-136.79339806 182.86835414 -158.43089197 204.51657071 -180.07202244 226.16115284 C-181.4290271 227.51837913 -182.78603168 228.87560549 -184.14303618 230.23283194 C-185.50326313 231.59327953 -186.86349016 232.95372704 -188.22371727 234.31417447 C-190.95245089 237.04335064 -193.68118222 239.77252909 -196.40991211 242.50170898 C-197.42475417 243.51671514 -197.42475417 243.51671514 -198.4600981 244.55222646 C-220.41768569 266.51344799 -242.36911379 288.48081253 -264.31687095 310.45185819 C-287.5311286 333.69070314 -310.75081117 356.92411376 -333.97676796 380.15126628 C-336.52521637 382.69988614 -339.07364279 385.24852799 -341.62205315 387.7971859 C-342.24952873 388.42471725 -342.87700431 389.0522486 -343.5234943 389.69879605 C-353.62421865 399.80067137 -363.71999735 409.90747542 -373.81402346 420.01604326 C-383.95320149 430.16957578 -394.09791926 440.31754685 -404.24830026 450.45988009 C-410.27914984 456.48626952 -416.30579426 462.51679406 -422.32649991 468.55331824 C-426.34809824 472.58465506 -430.37511918 476.61052009 -434.40659593 480.63197803 C-436.7035552 482.92353742 -438.99724477 485.21820474 -441.28603572 487.51792655 C-443.7532646 489.99619309 -446.22953162 492.46506448 -448.70829105 494.93179035 C-449.41467949 495.64577398 -450.12106793 496.35975762 -450.84886208 497.09537712 C-458.83854451 505.0013426 -465.42797387 508.96377634 -476.86499023 509.0078125 C-484.0991408 508.84105096 -489.58725995 506.92425692 -494.64453125 501.6875 C-501.07162966 493.54959122 -501.60278788 485.70645397 -500.7734375 475.625 C-497.43227358 461.81186592 -479.08655741 448.79534554 -469.45796204 439.17581177 C-467.57747665 437.29345677 -465.69718834 435.41090676 -463.81713551 433.52811992 C-459.7382406 429.44409189 -455.65750296 425.36191252 -451.57552528 421.28096581 C-445.50558254 415.21255235 -439.43849551 409.14128972 -433.37193221 403.0694981 C-421.90724567 391.59515659 -410.43914702 380.12422943 -398.96991888 368.65442772 C-390.11601235 359.8000613 -381.26290637 350.94489519 -372.41036034 342.08916855 C-369.86046601 339.53837667 -367.31056781 336.98758865 -364.76066846 334.43680179 C-364.12674237 333.80265466 -363.49281629 333.16850753 -362.83968032 332.51514381 C-345.01832895 314.68764162 -327.19587735 296.86123997 -309.37122822 279.03703499 C-308.69967225 278.3654946 -308.02811629 277.69395422 -307.33621014 277.00206412 C-303.93259134 273.59852842 -300.52896456 270.19500069 -297.12533603 266.79147471 C-296.44937672 266.11553535 -295.77341742 265.43959599 -295.0769745 264.74317362 C-293.71002406 263.37626362 -292.34307294 262.0093543 -290.97612114 260.64244566 C-269.68989769 239.35683549 -248.40774405 218.06716347 -227.12866211 196.77441406 C-203.21692092 172.84732075 -179.30181365 148.92359875 -155.38193005 125.00464523 C-152.83296423 122.45575404 -150.28401137 119.90684988 -147.73506737 117.35793686 C-146.79365173 116.4165387 -146.79365173 116.4165387 -145.83321759 115.4561224 C-135.7260294 105.348965 -125.62205513 95.23860058 -115.51918748 85.1271247 C-105.37373195 74.97320322 -95.22455285 64.82301545 -85.07157198 54.67661853 C-79.03746101 48.64620943 -73.00614516 42.6130359 -66.97878001 36.57588422 C-62.95479088 32.54591267 -58.92719249 28.51957273 -54.89661545 24.49619015 C-52.59889809 22.20236884 -50.30335345 19.90644651 -48.01107291 17.60719027 C-45.54278421 15.13188595 -43.06846069 12.66277682 -40.59248829 10.19516182 C-39.88084582 9.47855117 -39.16920336 8.76194053 -38.43599597 8.02361441 C-27.76099723 -2.57493536 -14.21437608 -8.14895827 0 0 Z " fill="#000000" transform="translate(500.7734375,3.375)"/>
<path d="M0 0 C4.45850936 0.79616239 5.90783917 1.93313458 8.5 5.625 C9.62668915 12.62814626 6.44166101 16.56659171 2.59375 22.03125 C1.99445679 22.91478149 1.39516357 23.79831299 0.77770996 24.70861816 C-1.77914427 28.47707812 -4.37340406 32.21929396 -6.96435547 35.96435547 C-8.85394934 38.7070993 -10.72412054 41.46237553 -12.59375 44.21875 C-13.18434204 45.05748657 -13.77493408 45.89622314 -14.38342285 46.76037598 C-17.60462742 51.51404719 -19.39039061 54.67264402 -18.5 60.625 C-17.23061576 63.31120182 -17.23061576 63.31120182 -14.5 64.625 C-7.45075235 64.20581778 -0.8223698 62.63090613 6 60.875 C7.04937744 60.61058105 8.09875488 60.34616211 9.17993164 60.07373047 C15.49002981 58.46430148 21.71870749 56.67796734 27.9375 54.75 C33.64069771 53.02188015 38.54170521 51.63195087 44.5 52.625 C48.00811779 55.05920418 49.27376734 56.41842584 50.0625 60.625 C49.33508918 64.50452438 48.44324191 65.96890364 45.5 68.625 C39.15151235 71.32779638 32.23196507 72.8062035 25.5625 74.5 C23.53619836 75.02243022 21.51015972 75.54588144 19.484375 76.0703125 C18.48212891 76.32973633 17.47988281 76.58916016 16.44726562 76.85644531 C12.06092358 78.00026612 7.68395565 79.17563442 3.3125 80.375 C2.57717041 80.57335449 1.84184082 80.77170898 1.08422852 80.97607422 C-3.90152978 82.33542783 -3.90152978 82.33542783 -8.5 84.625 C-10.04586876 87.71673752 -9.79359521 90.21929552 -9.5 93.625 C-6.14482796 98.14159981 -0.96333261 100.11938611 3.97265625 102.50390625 C4.89211533 102.95724838 5.8115744 103.41059052 6.75889587 103.87767029 C9.68971288 105.32200032 12.62554334 106.75570055 15.5625 108.1875 C18.5026601 109.623571 21.44153038 111.0620308 24.3768158 112.50804138 C26.20132294 113.40665683 28.0286854 114.29950316 29.85914612 115.18592834 C30.68688034 115.59322678 31.51461456 116.00052521 32.36743164 116.42016602 C33.09483047 116.77450211 33.82222931 117.1288382 34.57167053 117.49391174 C36.58399155 118.6742664 37.99096291 119.85030484 39.5 121.625 C40.17814692 124.69361481 40.08421182 127.54258714 39.5 130.625 C37.4375 133.1875 37.4375 133.1875 34.5 134.625 C29.13201614 135.06793855 25.81027668 134.19946936 21.0625 131.73046875 C20.46904785 131.42742325 19.8755957 131.12437775 19.26416016 130.81214905 C17.33610189 129.82466166 15.41843958 128.81852552 13.5 127.8125 C11.47394078 126.77029809 9.44529215 125.73325817 7.41650391 124.69638062 C6.05467559 123.99993377 4.69367208 123.30187175 3.33349609 122.60220337 C-2.55632968 119.57597439 -8.51121305 116.70024533 -14.5 113.875 C-23.25882301 109.72784178 -31.94074133 105.44263757 -40.5859375 101.06347656 C-41.44960938 100.62745117 -42.31328125 100.19142578 -43.203125 99.7421875 C-44.34249512 99.16380127 -44.34249512 99.16380127 -45.50488281 98.57373047 C-52.34339194 95.3218403 -58.51709343 96.6352628 -65.5 98.75 C-67.09187927 99.21289755 -68.68435903 99.67373361 -70.27734375 100.1328125 C-71.12022949 100.37676758 -71.96311523 100.62072266 -72.83154297 100.87207031 C-77.55384176 102.20451034 -82.30987557 103.40615642 -87.0625 104.625 C-94.41299758 106.52170812 -101.71016118 108.52870835 -108.97729492 110.72167969 C-116.24210832 112.89142797 -123.58117082 114.77197277 -130.92382812 116.65820312 C-132.33438477 117.02075195 -132.33438477 117.02075195 -133.7734375 117.390625 C-135.03293213 117.71208496 -135.03293213 117.71208496 -136.31787109 118.04003906 C-138.06263259 118.50775539 -139.78633255 119.05377752 -141.5 119.625 C-142.34663689 122.69850536 -142.7062921 125.43649711 -142.5 128.625 C-141.46167416 130.49125011 -141.46167416 130.49125011 -139.80786133 132.12524414 C-139.16329987 132.81546661 -138.5187384 133.50568909 -137.85464478 134.21682739 C-137.077612 135.01152435 -136.30057922 135.80622131 -135.5 136.625 C-134.58060638 137.56963104 -133.66121277 138.51426208 -132.71395874 139.48751831 C-129.37902286 142.88960025 -126.00859748 146.25569131 -122.63671875 149.62109375 C-121.39583494 150.86265226 -120.15509952 152.10435909 -118.914505 153.34620667 C-116.32995841 155.93221912 -113.74363273 158.5164351 -111.15600586 161.09936523 C-107.83588776 164.41375069 -104.52032784 167.73265417 -101.20605755 171.05288601 C-98.65231976 173.61022896 -96.09621554 176.16519587 -93.53937721 178.71943855 C-92.31499608 179.94315215 -91.09135861 181.16761029 -89.86847496 182.39282036 C-88.16691696 184.09690798 -86.46220408 185.79777436 -84.7565918 187.49780273 C-84.25113831 188.00528046 -83.74568481 188.51275818 -83.22491455 189.03561401 C-78.87856166 193.35554329 -76.14980022 193.8250686 -70.18359375 194.125 C-69.45310318 194.16560547 -68.72261261 194.20621094 -67.96998596 194.24804688 C-65.62602967 194.37786359 -63.28181559 194.50185549 -60.9375 194.625 C-57.87351988 194.78853151 -54.80971745 194.95491979 -51.74609375 195.125 C-51.00254135 195.16625 -50.25898895 195.2075 -49.49290466 195.25 C-45.9912875 195.45216967 -42.51189197 195.69039722 -39.03125 196.125 C-31.58738172 197.04637328 -24.05001318 197.23936407 -16.5625 197.625 C11.33425851 199.06497786 11.33425851 199.06497786 15.125 201.6875 C17.45776889 204.57276679 17.91785102 205.21775464 18.125 208.6875 C17.45315923 212.92009682 16.88463799 214.13629559 13.5 216.625 C10.83978115 217.95510943 8.78335256 217.75745509 5.8125 217.75 C4.79800781 217.75257813 3.78351563 217.75515625 2.73828125 217.7578125 C-0.5 217.625 -0.5 217.625 -3.796875 217.15234375 C-8.21966922 216.52251546 -12.60296468 216.27043765 -17.0625 216.0625 C-17.93640381 216.0207666 -18.81030762 215.9790332 -19.71069336 215.93603516 C-32.28524499 214.84212324 -32.28524499 214.84212324 -44.5 216.625 C-45.34769445 219.70234454 -45.73091881 222.43285613 -45.5 225.625 C-44.27340732 227.67712201 -44.27340732 227.67712201 -42.46826172 229.46923828 C-41.82572449 230.15745667 -41.18318726 230.84567505 -40.5211792 231.55474854 C-39.85419006 232.23793152 -39.18720093 232.9211145 -38.5 233.625 C-37.89859192 234.24711365 -37.29718384 234.86922729 -36.67755127 235.51019287 C-34.82600014 237.39761486 -32.95205648 239.25988753 -31.0703125 241.1171875 C-30.39451141 241.78920197 -29.71871033 242.46121643 -29.02243042 243.15359497 C-26.89239759 245.27154199 -24.7591181 247.38617003 -22.625 249.5 C-19.79141798 252.30704089 -16.96113492 255.11734838 -14.1328125 257.9296875 C-13.15636276 258.89368973 -13.15636276 258.89368973 -12.16018677 259.87716675 C-11.56221283 260.47183746 -10.96423889 261.06650818 -10.34814453 261.67919922 C-9.82076691 262.20134003 -9.29338928 262.72348083 -8.75003052 263.26144409 C-6.84357477 265.34104051 -6.5026695 266.60097446 -6.1875 269.4375 C-6.57164358 273.3557645 -7.79256317 274.83793267 -10.5 277.625 C-13.51778937 279.13389469 -15.12322637 279.12526276 -18.5 278.625 C-20.31619263 277.30612183 -20.31619263 277.30612183 -22.24267578 275.55810547 C-23.29699799 274.60191315 -23.29699799 274.60191315 -24.37261963 273.62640381 C-27.64611642 270.54675287 -30.83515273 267.39389715 -33.9921875 264.1953125 C-35.0002092 263.18161087 -35.0002092 263.18161087 -36.02859497 262.14743042 C-38.14654199 260.01739759 -40.26117003 257.8841181 -42.375 255.75 C-45.18204089 252.91641798 -47.99234838 250.08613492 -50.8046875 247.2578125 C-51.44735565 246.60684601 -52.0900238 245.95587952 -52.75216675 245.28518677 C-53.64417282 244.38822586 -53.64417282 244.38822586 -54.55419922 243.47314453 C-55.07634003 242.94576691 -55.59848083 242.41838928 -56.13644409 241.87503052 C-59.07959928 239.1769132 -61.64387735 239.46760724 -65.5 239.625 C-66.49 239.955 -67.48 240.285 -68.5 240.625 C-71.64043908 250.04631723 -69.22797774 262.06841961 -68.5 271.8125 C-66.69446591 296.19940978 -66.69446591 296.19940978 -69.5 300.625 C-72.64456551 302.72137701 -74.66094676 302.99056445 -78.3671875 303.28125 C-81.83148228 302.21531315 -83.70401212 299.63560063 -85.5 296.625 C-86.28584866 293.72694671 -86.40559655 290.89329241 -86.50732422 287.90087891 C-86.55533173 287.04478531 -86.60333923 286.18869171 -86.65280151 285.30665588 C-86.75392471 283.45586304 -86.84458861 281.604475 -86.92586899 279.75270462 C-87.05625342 276.81629625 -87.21721971 273.88298509 -87.38650513 270.94857788 C-87.86154709 262.60912569 -88.27705518 254.26688755 -88.68310547 245.92382812 C-88.93398921 240.81234394 -89.21660662 235.70335843 -89.51745987 230.59458542 C-89.67699717 227.7126614 -89.7989814 224.83067295 -89.92037964 221.94692993 C-90.0923629 211.91964297 -90.0923629 211.91964297 -94.30981445 203.18481445 C-95.6832157 201.97128631 -97.0837006 200.78817564 -98.5 199.625 C-99.94116554 198.1708239 -101.38108076 196.71526696 -102.80377483 195.24301434 C-105.62082924 192.33583103 -108.49812736 189.48855711 -111.36328125 186.62890625 C-112.60416506 185.38734774 -113.84490048 184.14564091 -115.085495 182.90379333 C-117.67004159 180.31778088 -120.25636727 177.7335649 -122.84399414 175.15063477 C-126.16411224 171.83624931 -129.47967216 168.51734583 -132.79394245 165.19711399 C-135.34768024 162.63977104 -137.90378446 160.08480413 -140.46062279 157.53056145 C-141.68500392 156.30684785 -142.90864139 155.08238971 -144.13152504 153.85717964 C-145.83308304 152.15309202 -147.53779592 150.45222564 -149.2434082 148.75219727 C-149.74886169 148.24471954 -150.25431519 147.73724182 -150.77508545 147.21438599 C-154.45537896 143.47741116 -154.45537896 143.47741116 -159.4375 142.5 C-162.54198085 142.48495188 -162.54198085 142.48495188 -165.5 143.625 C-166.36611992 145.2695637 -166.36611992 145.2695637 -166.875 147.4375 C-167.12378906 148.345 -167.37257813 149.2525 -167.62890625 150.1875 C-168.92459169 155.30051879 -170.19380797 160.42002278 -171.45263672 165.54223633 C-173.21828514 172.66420695 -175.21261676 179.70529945 -177.2644043 186.74926758 C-179.26567513 193.67228713 -181.03596037 200.63679706 -182.73510742 207.6394043 C-184.16311777 213.46416799 -185.84310487 219.12893623 -187.80078125 224.80078125 C-189.7816107 232.80156164 -187.3738518 237.89705589 -183.8125 244.9375 C-183.32136719 245.93587891 -182.83023438 246.93425781 -182.32421875 247.96289062 C-180.73105544 251.19124793 -179.11747087 254.40876012 -177.5 257.625 C-176.42018227 259.784961 -175.3407552 261.94511734 -174.26171875 264.10546875 C-172.63115937 267.36683194 -170.99886147 270.62726468 -169.36108398 273.88500977 C-164.28707379 283.99134672 -159.40057631 294.18306334 -154.56762695 304.40649414 C-153.6549993 306.30291478 -152.69361476 308.17574084 -151.72265625 310.04296875 C-150.09118774 313.48833834 -150.0204849 315.85738133 -150.5 319.625 C-151.9375 322.5625 -151.9375 322.5625 -154.5 324.625 C-157.63376707 325.33225385 -160.4098891 325.54985714 -163.5 324.625 C-167.54217358 320.34603286 -169.84152369 315.25998294 -172.37890625 310.01953125 C-173.30917156 308.1308233 -174.23951234 306.24215253 -175.16992188 304.35351562 C-176.62281038 301.38538395 -178.07300195 298.41596001 -179.52124023 295.44555664 C-180.92541956 292.57103248 -182.33920311 289.70138702 -183.75390625 286.83203125 C-184.18522354 285.93934036 -184.61654083 285.04664948 -185.06092834 284.12690735 C-185.46822678 283.30232529 -185.87552521 282.47774323 -186.29516602 281.62817383 C-186.64950211 280.90157059 -187.0038382 280.17496735 -187.36891174 279.42634583 C-188.52459065 277.31272673 -188.52459065 277.31272673 -191.5 275.625 C-195.20544587 275.42649397 -197.97005387 275.44835129 -201.5 276.625 C-202.43627911 278.78945004 -202.43627911 278.78945004 -203.0078125 281.4609375 C-203.25563477 282.45963867 -203.50345703 283.45833984 -203.75878906 284.48730469 C-204.00338867 285.52274414 -204.24798828 286.55818359 -204.5 287.625 C-204.97580428 289.5340433 -205.45235817 291.44289994 -205.9296875 293.3515625 C-206.28281006 294.79341919 -206.28281006 294.79341919 -206.64306641 296.2644043 C-208.69668461 304.64122119 -210.78502811 313.01050947 -213.125 321.3125 C-213.30659668 321.98812988 -213.48819336 322.66375977 -213.67529297 323.35986328 C-214.88879853 327.54640373 -216.5176976 330.44819962 -219.5 333.625 C-222.38861709 335.06930855 -224.29647701 335.00188506 -227.5 334.625 C-230.375 332.6875 -230.375 332.6875 -232.5 329.625 C-233.72046053 322.3022368 -231.22693678 315.79351556 -229.078125 308.86328125 C-227.10502393 302.43540741 -225.39394296 295.94034895 -223.6875 289.4375 C-223.37353271 288.26719238 -223.05956543 287.09688477 -222.73608398 285.89111328 C-222.44548096 284.77849121 -222.15487793 283.66586914 -221.85546875 282.51953125 C-221.59403076 281.52800049 -221.33259277 280.53646973 -221.06323242 279.51489258 C-220.24021641 275.29207482 -219.63966849 271.9327039 -222.0625 268.25 C-225.530154 265.93823067 -227.35292074 266.12899697 -231.5 266.625 C-234.86365043 268.2672797 -237.85044401 270.37951994 -240.90625 272.53125 C-241.78978149 273.13054321 -242.67331299 273.72983643 -243.58361816 274.34729004 C-246.39979889 276.2580344 -249.2012931 278.18876649 -252 280.125 C-255.68563672 282.67483947 -259.38479269 285.20299028 -263.09375 287.71875 C-264.35185486 288.60463806 -264.35185486 288.60463806 -265.63537598 289.50842285 C-270.37016315 292.71683112 -273.57090253 294.57889265 -279.5 293.625 C-283.19186542 291.03283917 -284.32883761 289.58350936 -285.125 285.125 C-284.10486928 279.41226796 -279.97872561 276.87132016 -275.42944336 273.69677734 C-273.82013207 272.61237078 -272.20667162 271.53410481 -270.58984375 270.4609375 C-269.71727936 269.87546143 -268.84471497 269.28998535 -267.94570923 268.68676758 C-266.07875891 267.43487609 -264.21017859 266.18541261 -262.34011841 264.93817139 C-259.41989854 262.98824694 -256.50683827 261.02803662 -253.59545898 259.06494141 C-245.6496364 253.71309796 -237.70401583 248.36600776 -229.63627625 243.19906616 C-227.02753672 241.52713763 -224.43141441 239.83621245 -221.83621216 238.14337158 C-220.66928403 237.39114555 -219.49543519 236.64953076 -218.31442261 235.9196167 C-211.49516993 231.70473333 -207.38871916 228.41044489 -205.18041992 220.55175781 C-204.95588135 219.58592773 -204.73134277 218.62009766 -204.5 217.625 C-204.23098877 216.6256543 -203.96197754 215.62630859 -203.68481445 214.59667969 C-202.86718571 211.511712 -202.11269985 208.41747477 -201.375 205.3125 C-198.71483372 194.25575759 -198.71483372 194.25575759 -197.33984375 190.21875 C-196.46120856 187.5051976 -196.20073104 185.282174 -196.1875 182.4375 C-196.16236328 181.17873047 -196.16236328 181.17873047 -196.13671875 179.89453125 C-196.57037507 177.18534497 -197.40336069 176.32333316 -199.5 174.625 C-198.10363479 171.47272849 -196.46829025 169.34559618 -194.03256226 166.91705322 C-193.31460983 166.19635147 -192.59665741 165.47564972 -191.85694885 164.73310852 C-191.06932663 163.95267685 -190.28170441 163.17224518 -189.47021484 162.36816406 C-188.64086929 161.53852646 -187.81152374 160.70888885 -186.95704651 159.85411072 C-184.21305719 157.11151536 -181.46205027 154.3760732 -178.7109375 151.640625 C-176.80708432 149.74161233 -174.90473405 147.8410969 -173.00234985 145.94061279 C-168.50504509 141.44952149 -164.00266689 136.96355233 -159.49844134 132.47940326 C-154.36999956 127.37332462 -149.24724302 122.26155841 -144.12495494 117.14930773 C-133.58961478 106.63486654 -123.04716018 96.12758535 -112.5 85.625 C-108.625 87.5 -108.625 87.5 -107.5 88.625 C-99.6614955 89.52071115 -92.69220817 87.62451961 -85.25 85.375 C-83.04171404 84.72640117 -80.83338101 84.07796261 -78.625 83.4296875 C-77.04525391 82.95934082 -77.04525391 82.95934082 -75.43359375 82.47949219 C-72.94332705 81.75413155 -70.45233711 81.07863616 -67.9375 80.4453125 C-66.720625 80.13335937 -65.50375 79.82140625 -64.25 79.5 C-63.23421875 79.24992187 -62.2184375 78.99984375 -61.171875 78.7421875 C-54.37400852 75.89980473 -50.85811506 68.93104057 -47 63 C-45.59891193 60.87545972 -44.19650911 58.75182399 -42.79296875 56.62890625 C-42.40139084 56.03544907 -42.00981293 55.44199188 -41.60636902 54.83055115 C-35.87448562 46.14931311 -30.08379179 37.50739487 -24.28222656 28.87261963 C-22.97250035 26.9209766 -21.66503223 24.96781622 -20.35986328 23.01312256 C-18.5016987 20.23042769 -16.6364169 17.45263022 -14.76953125 14.67578125 C-13.93280632 13.41772926 -13.93280632 13.41772926 -13.07917786 12.13426208 C-5.55819119 0.99253414 -5.55819119 0.99253414 0 0 Z " fill="#00B9D1" transform="translate(445.5,160.375)"/>
<path d="M0 0 C3.375 2.125 3.375 2.125 6 5 C6.79822955 8.75167887 6.3530427 10.38989168 4.43902445 13.69758916 C1.54676274 17.86775057 -2.06026769 21.33513815 -5.64939117 24.90107346 C-6.42777169 25.68236085 -7.2061522 26.46364824 -8.00812 27.26861101 C-10.627191 29.89500218 -13.25335053 32.51418858 -15.8795166 35.13348389 C-17.77382708 37.03009799 -19.66773847 38.92710307 -21.56117105 40.82459283 C-25.68359128 44.95423744 -29.80972101 49.08014639 -33.93830299 53.20363045 C-40.07749978 59.33526717 -46.21097548 65.47260288 -52.34333383 71.61107789 C-63.29488029 82.57316096 -74.25214915 93.52950997 -85.21185176 104.483438 C-94.80152204 114.06808025 -104.38933511 123.65457541 -113.97529602 133.24292755 C-114.92851259 134.19637328 -114.92851259 134.19637328 -115.90098606 135.16908053 C-118.48047325 137.74919038 -121.05995337 140.32930729 -123.63942184 142.90943584 C-147.84224545 167.11837906 -172.05090083 191.32148308 -196.26216469 215.52198489 C-217.78368286 237.03400938 -239.30002154 258.55120153 -260.81201172 280.07275391 C-284.97085356 304.24229855 -309.13291505 328.40861698 -333.30020094 352.5697186 C-335.87504166 355.14391786 -338.44987449 357.71812501 -341.02470398 360.29233551 C-341.65871436 360.92618773 -342.29272473 361.56003996 -342.94594755 362.21309982 C-352.5308151 371.79568998 -362.11320783 381.38075021 -371.69441223 390.96700287 C-382.58432303 401.86262278 -393.47778177 412.75468125 -404.37598145 423.6420106 C-410.47934606 429.73948861 -416.57992733 435.83972075 -422.67658423 441.94390573 C-426.74437186 446.01616314 -430.81575707 450.08479945 -434.89014305 454.15045501 C-437.21460361 456.47013821 -439.53687936 458.79193605 -441.85591775 461.11704168 C-444.34958984 463.61674008 -446.84925724 466.11028088 -449.35060883 468.60229111 C-450.07535194 469.33171655 -450.80009505 470.061142 -451.54680008 470.81267124 C-452.21270284 471.47356697 -452.87860561 472.13446271 -453.56468725 472.81538558 C-454.13592922 473.38649203 -454.70717119 473.95759849 -455.29572353 474.54601119 C-458.42553557 477.21618341 -460.34365374 478.01172047 -464.5 477.9375 C-468 477 -468 477 -470.4375 474.8125 C-472.29040934 471.4772632 -472.37515337 469.76846663 -472 466 C-470.67452848 463.87430525 -470.67452848 463.87430525 -468.64360619 461.77654266 C-467.81209061 460.90780486 -466.98057504 460.03906706 -466.12386203 459.14400387 C-465.08367254 458.0949129 -464.04227796 457.04701608 -463 456 C-461.72788229 454.70464663 -460.45602782 453.40903472 -459.18437886 452.11322117 C-454.38307779 447.24113639 -449.54232191 442.40888384 -444.70230103 437.57531738 C-442.82380044 435.69566379 -440.94549831 433.81581376 -439.06743467 431.93572378 C-434.99295889 427.85764902 -430.91664242 423.78142157 -426.83908844 419.70642471 C-420.77586068 413.64698899 -414.71550581 407.58468594 -408.65570017 401.52182814 C-397.83299748 390.69386701 -387.00744404 379.86875959 -376.18066632 369.0448732 C-366.71027836 359.57700193 -357.24082178 350.10820037 -347.77228928 340.63847351 C-347.14394187 340.01004972 -346.51559446 339.38162593 -345.86820622 338.73415899 C-343.31754342 336.18318485 -340.76688415 333.63220718 -338.21623069 331.08122369 C-314.3026902 307.16462592 -290.38623726 283.25094247 -266.46847592 259.33856582 C-245.21041859 238.08525797 -223.95495355 216.82936083 -202.70166016 195.57128906 C-178.8221154 171.68639341 -154.94096078 147.80310928 -131.05719411 123.92243528 C-128.51306494 121.37862683 -125.9689397 118.83481443 -123.42481613 116.29100037 C-122.79838659 115.6646499 -122.17195704 115.03829943 -121.52654478 114.39296864 C-112.05702438 104.92458686 -102.58874063 95.45496964 -93.12105179 85.98475647 C-82.36394097 75.22479182 -71.60505595 64.46660479 -60.84380014 53.71078557 C-54.8173231 47.68725247 -48.79223524 41.66233757 -42.7691118 35.63545105 C-38.7512752 31.61538046 -34.73163865 27.59711579 -30.71050206 23.58034608 C-28.4160795 21.28831338 -26.12274276 18.99521266 -23.83103104 16.70046908 C-21.3677355 14.23416302 -18.90142632 11.77091179 -16.43428993 9.30844879 C-15.71637077 8.58818846 -14.99845161 7.86792814 -14.25877732 7.12584174 C-13.60357006 6.47313799 -12.9483628 5.82043425 -12.27330077 5.1479516 C-11.70926074 4.58397933 -11.14522071 4.02000706 -10.56408856 3.43894473 C-7.00110265 0.16103584 -4.76245029 -0.65366965 0 0 Z " fill="#01A3EB" transform="translate(489,17)"/>
<path d="M0 0 C2.59440315 2.88205552 3.71472773 5.10127897 4 9 C3.23355683 11.92641938 2.37191157 13.60053942 0.3125 15.8125 C-2.90141111 17.46288678 -5.43684918 17.25913824 -9 17 C-9.99 16.67 -10.98 16.34 -12 16 C-45.99 49.99 -79.98 83.98 -115 119 C-114.67 119.99 -114.34 120.98 -114 122 C-113.62219501 126.0802939 -113.59186847 128.3046648 -115.6875 131.875 C-118.34602137 134.31796559 -119.40080201 135 -123 135 C-127.32637874 134.13472425 -129.10306051 133.2834777 -131.640625 129.65234375 C-135.82077782 121.80927925 -138.03949364 113.61617412 -140 105 C-140.1757959 104.23002686 -140.3515918 103.46005371 -140.53271484 102.66674805 C-144.80985003 78.25757999 -139.38484294 53.3071853 -126.125 32.625 C-111.22051775 11.44343773 -89.77995952 -4.22023801 -64.0859375 -9.3046875 C-42.70726459 -12.71794234 -19.11026402 -10.82734506 0 0 Z " fill="#FDDA00" transform="translate(284,153)"/>
<path d="M0 0 C8.53185843 4.27534628 12.0544137 15.54296862 15.89453125 23.63671875 C16.45487061 24.80968506 17.01520996 25.98265137 17.5925293 27.19116211 C23.3049319 39.16759868 28.91307736 51.19310156 34.44921875 63.25195312 C35.7817639 66.14213551 37.13233955 69.02308629 38.48828125 71.90234375 C39.22858076 73.50097063 39.96822144 75.09990286 40.70703125 76.69921875 C41.20456909 77.73767944 41.20456909 77.73767944 41.7121582 78.79711914 C44.30787969 84.49659104 44.61491081 88.97132845 42.83203125 94.94921875 C37.86373917 103.76393051 26.34385802 110.23694316 16.89453125 113.38671875 C10.92976831 113.92057017 5.9370753 113.93942024 0.89453125 110.38671875 C-4.11051824 105.27127717 -8.01610191 99.31208619 -11.98046875 93.38671875 C-13.30759521 91.42120041 -14.63575421 89.45637893 -15.96484375 87.4921875 C-16.64611328 86.48462402 -17.32738281 85.47706055 -18.02929688 84.43896484 C-21.39011737 79.49811608 -24.80973702 74.59869351 -28.23046875 69.69921875 C-33.36061339 62.34189863 -38.47245767 54.97279404 -43.54296875 47.57421875 C-44.09291504 46.77346924 -44.64286133 45.97271973 -45.20947266 45.14770508 C-45.7101123 44.41575928 -46.21075195 43.68381348 -46.7265625 42.9296875 C-47.16411865 42.2905542 -47.6016748 41.6514209 -48.05249023 40.99291992 C-51.16741932 36.24144335 -50.62447965 30.89400104 -50.10546875 25.38671875 C-46.90203004 18.74254958 -41.24938847 15.32648902 -35 11.75 C-34.43472092 11.42509079 -33.86944183 11.10018158 -33.28703308 10.76542664 C-31.4995877 9.73938383 -29.7088267 8.71929105 -27.91796875 7.69921875 C-26.70486253 7.00363107 -25.49196983 6.30767087 -24.27929688 5.61132812 C-9.60347047 -2.7973003 -9.60347047 -2.7973003 0 0 Z " fill="#010000" transform="translate(148.10546875,22.61328125)"/>
<path d="M0 0 C3.42765862 1.47203324 6.28624299 3.49180925 9.26757812 5.72021484 C11.26146601 7.19315175 13.29076756 8.60733194 15.328125 10.01953125 C18.71892505 12.37116519 22.09977775 14.73600959 25.47265625 17.11328125 C30.21895009 20.45565792 34.98129223 23.77430851 39.74975586 27.08496094 C42.65808184 29.10457133 45.56365119 31.12809483 48.46875 33.15234375 C52.0027379 35.61421606 55.54447879 38.06413053 59.09375 40.50390625 C60.62514571 41.56489388 62.15640455 42.62607911 63.6875 43.6875 C64.37610107 44.15623535 65.06470215 44.6249707 65.77416992 45.10791016 C70.43398354 48.3547099 74.14628918 51.43886754 76 57 C77.29428454 65.63402472 74.32390566 71.6750274 70 79 C69.24589844 80.28003906 69.24589844 80.28003906 68.4765625 81.5859375 C65.25141239 86.72228768 61.8313576 91.39330165 56.0625 93.8125 C49.24844896 94.43195919 44.85621988 93.47745191 38.80078125 90.5859375 C37.63462029 90.04808121 37.63462029 90.04808121 36.44490051 89.49935913 C33.95653038 88.34675447 31.47796219 87.17479223 29 86 C27.37701963 85.23941944 25.75381107 84.47932561 24.13037109 83.71972656 C19.13929024 81.37592734 14.16212781 79.0034826 9.1875 76.625 C5.67469255 74.9461675 2.16169546 73.26773329 -1.3515625 71.58984375 C-2.19629623 71.18609024 -3.04102997 70.78233673 -3.91136169 70.36634827 C-8.61830749 68.12081558 -13.3388518 65.91327367 -18.0859375 63.75390625 C-19.54809692 63.08270752 -19.54809692 63.08270752 -21.03979492 62.39794922 C-22.72963328 61.62540716 -24.4246881 60.86410844 -26.1262207 60.11767578 C-31.08145373 57.83572575 -33.86066735 55.49590852 -37 51 C-38.93069246 45.20792263 -39.02457348 39.61311355 -36.78027344 33.88916016 C-35.08733341 30.62029659 -33.27367633 27.46613644 -31.375 24.3125 C-30.75753906 23.23677734 -30.14007812 22.16105469 -29.50390625 21.05273438 C-15.64615278 -2.76801448 -15.64615278 -2.76801448 0 0 Z " fill="#010000" transform="translate(60,98)"/>
<path d="M0 0 C2.23045124 1.22136835 4.42837361 2.47079791 6.625 3.75 C7.41922363 4.20052734 8.21344727 4.65105469 9.03173828 5.11523438 C11.71905041 6.64285375 14.39255144 8.19224903 17.0625 9.75 C17.9272998 10.24790039 18.79209961 10.74580078 19.68310547 11.25878906 C25.26710776 14.58890876 29.64679291 17.79358583 32.625 23.75 C32.8984375 26.03515625 32.8984375 26.03515625 33 28.8125 C33.04898438 29.71097656 33.09796875 30.60945313 33.1484375 31.53515625 C31.90763085 39.15593143 26.44479992 45.67650433 22 51.8125 C20.93143523 53.30667955 19.86374597 54.80148557 18.796875 56.296875 C18.26384766 57.04259766 17.73082031 57.78832031 17.18164062 58.55664062 C14.83297748 61.86598657 12.53966485 65.2121847 10.25 68.5625 C4.2875323 77.26737494 -1.75152866 85.91734225 -7.83007812 94.54150391 C-9.17048844 96.45764672 -10.489158 98.38571399 -11.796875 100.32421875 C-16.0964712 106.56529929 -19.07226214 110.39669711 -26.625 112.32421875 C-36.46325845 113.47901433 -45.62530832 107.19749028 -53.375 101.75 C-58.29544095 97.44730784 -61.02815745 93.92939001 -61.75 87.3125 C-61.6121507 77.35232303 -54.65847533 67.0047822 -50.375 58.25 C-49.22616097 55.88491852 -48.07846457 53.51934295 -46.93359375 51.15234375 C-46.64165634 50.54885605 -46.34971893 49.94536835 -46.04893494 49.32359314 C-42.22303795 41.39181066 -38.54186354 33.39243158 -34.86523438 25.390625 C-32.35696767 19.94797679 -29.81710565 14.52180646 -27.1953125 9.1328125 C-26.73012207 8.17391113 -26.26493164 7.21500977 -25.78564453 6.22705078 C-20.24121424 -3.50880761 -9.47517868 -4.58302969 0 0 Z " fill="#010100" transform="translate(347.375,24.25)"/>
<path d="M0 0 C8.65427754 5.83223052 16.33254772 17.95010691 18.58984375 28.17578125 C18.79038106 33.97532026 17.37443729 38.252198 13.875 42.9375 C11.78472736 44.93853048 9.51139735 46.55784833 7.125 48.1875 C6.46306641 48.65583252 5.80113281 49.12416504 5.11914062 49.60668945 C3.04797725 51.06562982 0.96349643 52.50351108 -1.125 53.9375 C-2.3699515 54.80055074 -3.61474757 55.66382573 -4.859375 56.52734375 C-7.44179156 58.31246791 -10.03152347 60.08645779 -12.625 61.85546875 C-17.9823516 65.51494826 -23.30202406 69.22828482 -28.625 72.9375 C-31.54337335 74.96796522 -34.4620955 76.99792825 -37.38085938 79.02783203 C-39.14330319 80.25432985 -40.90507992 81.48178712 -42.66601562 82.71044922 C-44.90002597 84.26866685 -47.13705615 85.82243952 -49.375 87.375 C-50.34856445 88.0565918 -50.34856445 88.0565918 -51.34179688 88.75195312 C-57.34927567 92.90696289 -61.95918279 93.54211583 -69.125 92.9375 C-78.33955248 89.80802935 -82.32825654 80.50365412 -86.85595703 72.54125977 C-87.88044184 70.74043441 -88.91409178 68.94511597 -89.94921875 67.15039062 C-94.44314759 59.30603762 -96.89417087 54.05359919 -96.125 44.9375 C-94.08212581 38.92237045 -90.10150082 35.52165407 -84.62451172 32.60668945 C-81.47725301 31.10844034 -78.30759078 29.67167751 -75.125 28.25 C-72.62673814 27.11383045 -70.12935285 25.97587186 -67.6328125 24.8359375 C-66.96742462 24.53318405 -66.30203674 24.2304306 -65.6164856 23.91850281 C-60.11201704 21.4076537 -54.6419608 18.82777712 -49.1796875 16.2265625 C-48.33577454 15.82485336 -47.49186157 15.42314423 -46.62237549 15.00926208 C-43.25513707 13.40530692 -39.88854278 11.80003 -36.52392578 10.19058228 C-8.88919404 -3.02232597 -8.88919404 -3.02232597 0 0 Z " fill="#010000" transform="translate(118.125,287.0625)"/>
<path d="M0 0 C1.57363834 0.12753018 3.14729287 0.25486063 4.72096252 0.38200378 C7.98776741 0.64757247 11.25412316 0.91803779 14.52026367 1.19165039 C18.68712474 1.53995435 22.8551198 1.87183553 27.02363491 2.19966602 C30.26122841 2.45678305 33.49787901 2.72453484 36.73436165 2.99524498 C38.27091407 3.12213173 39.80777621 3.24532881 41.34493828 3.36460304 C59.37461611 4.77368687 59.37461611 4.77368687 65.125 9.4765625 C65.58003906 10.05535156 66.03507812 10.63414062 66.50390625 11.23046875 C67.21353516 12.09478516 67.21353516 12.09478516 67.9375 12.9765625 C71.1478836 18.1420586 70.32626301 24.68904054 70.37890625 30.54296875 C70.42241211 32.13238281 70.42241211 32.13238281 70.46679688 33.75390625 C70.53085665 41.69731828 69.48985638 47.27699294 63.75390625 53.16796875 C58.51942065 56.33300656 52.88131274 57.06914813 46.86865234 57.57080078 C45.84505615 57.659021 45.84505615 57.659021 44.80078125 57.74902344 C42.56432532 57.93989709 40.32718651 58.12062508 38.08984375 58.30078125 C36.51669543 58.43198494 34.94358604 58.56365615 33.37051392 58.69577026 C30.07760159 58.97076256 26.78433557 59.24085742 23.49072266 59.50732422 C19.30452235 59.84628617 15.11932616 60.19617795 10.93433189 60.54968452 C7.68466955 60.82313289 4.43458245 61.09123313 1.18434525 61.35775375 C-0.35687837 61.48464578 -1.89798299 61.61299296 -3.4389534 61.74292374 C-31.22568482 64.07390044 -31.22568482 64.07390044 -36.93359375 59.79296875 C-42.38642675 54.19074307 -43.10817259 50.30040939 -43.171875 42.65625 C-43.17994675 41.74344772 -43.18801849 40.83064545 -43.19633484 39.8901825 C-43.21018142 37.95423281 -43.220901 36.01825865 -43.22875977 34.08227539 C-43.24592499 31.13445026 -43.28979987 28.18776058 -43.33398438 25.24023438 C-43.3441156 23.35808115 -43.35263036 21.4759184 -43.359375 19.59375 C-43.37688309 18.71745438 -43.39439117 17.84115875 -43.41242981 16.93830872 C-43.39172424 11.03650792 -42.35666429 7.63457403 -38.93359375 2.79296875 C-29.6884349 -5.21950226 -11.51372012 -0.95631509 0 0 Z " fill="#020100" transform="translate(42.93359375,208.20703125)"/>
<path d="M0 0 C0.90809921 -0.0038269 1.81619843 -0.00765381 2.7518158 -0.01159668 C4.66211055 -0.0143063 6.57244302 -0.00701194 8.48266602 0.00976562 C11.3974914 0.03121429 14.30985928 0.00991928 17.22460938 -0.015625 C19.08724499 -0.01298204 20.94987908 -0.00785772 22.8125 0 C23.67827164 -0.00809692 24.54404327 -0.01619385 25.43605042 -0.02453613 C30.88978843 0.05954576 34.00813244 0.91685781 38.33984375 4.53125 C44.28127766 11.11500109 43.58202186 17.04274812 43.33984375 25.53125 C43.02939562 31.10713507 42.59270333 36.66910242 42.1328125 42.234375 C42.00534135 43.80848097 41.87800953 45.38259823 41.75080872 46.95672607 C41.4847393 50.231242 41.21429415 53.5053629 40.94116211 56.77929688 C40.59371853 60.95290546 40.26155779 65.12757949 39.93314648 69.30272293 C39.67570928 72.54462118 39.4080374 75.78561657 39.13756752 79.02645111 C39.01077846 80.56497654 38.88757758 82.10380247 38.76820946 83.64292145 C37.14754598 104.40095459 37.14754598 104.40095459 31.46484375 109.46875 C24.79513936 113.8707549 19.25991731 113.86720088 11.46484375 113.84375 C9.86962891 113.86791992 9.86962891 113.86791992 8.2421875 113.89257812 C2.15973997 113.89635604 -2.33310335 113.55490519 -7.66015625 110.53125 C-13.37106386 104.82034239 -14.77849313 99.3586638 -15.43798828 91.47875977 C-15.49680176 90.79972092 -15.55561523 90.12068207 -15.61621094 89.42106628 C-15.80753211 87.18881796 -15.98805988 84.95585111 -16.16796875 82.72265625 C-16.2991606 81.15286888 -16.43083194 79.58312151 -16.56295776 78.01341248 C-16.83824568 74.72293859 -17.1082866 71.43208835 -17.37451172 68.14086914 C-17.71264123 63.96484843 -18.06277587 59.78994419 -18.41687202 55.61525059 C-18.69090803 52.36984174 -18.9588058 49.12394742 -19.22494125 45.877882 C-19.35156514 44.34108004 -19.47989687 42.80441763 -19.61011124 41.26791573 C-21.98153504 13.12891597 -21.98153504 13.12891597 -19.09765625 7.34375 C-13.50234267 0.88761895 -8.14120395 -0.07631711 0 0 Z " fill="#010100" transform="translate(227.66015625,-0.53125)"/>
<path d="M0 0 C2.59440315 2.88205552 3.71472773 5.10127897 4 9 C3.23355683 11.92641938 2.37191157 13.60053942 0.3125 15.8125 C-3.05027931 17.53933262 -5.24907216 17.43760825 -9 17 C-10.94846904 16.1631025 -12.76311756 15.17404885 -14.62109375 14.15234375 C-30.85514122 6.28856049 -51.13914302 5.43464709 -68.29296875 10.6796875 C-79.45980136 14.65691555 -88.90345321 20.44454734 -98 28 C-98.64324219 28.52851563 -99.28648437 29.05703125 -99.94921875 29.6015625 C-112.72828702 41.21889729 -121.92305673 60.01253947 -123.15234375 77.12011719 C-123.82063276 92.49744737 -122.78574741 108.82137888 -114 122 C-113.54493785 126.09555939 -113.58370518 128.29075697 -115.6875 131.875 C-118.34602137 134.31796559 -119.40080201 135 -123 135 C-127.32637874 134.13472425 -129.10306051 133.2834777 -131.640625 129.65234375 C-135.82077782 121.80927925 -138.03949364 113.61617412 -140 105 C-140.1757959 104.23002686 -140.3515918 103.46005371 -140.53271484 102.66674805 C-144.80985003 78.25757999 -139.38484294 53.3071853 -126.125 32.625 C-111.22051775 11.44343773 -89.77995952 -4.22023801 -64.0859375 -9.3046875 C-42.70726459 -12.71794234 -19.11026402 -10.82734506 0 0 Z " fill="#010000" transform="translate(284,153)"/>
<path d="M0 0 C1.7734375 2.36328125 1.7734375 2.36328125 3.375 5.3125 C3.91898437 6.27800781 4.46296875 7.24351562 5.0234375 8.23828125 C6 11 6 11 5.3371582 12.96459961 C3.7099174 15.441559 2.0337436 16.66410452 -0.41796875 18.328125 C-1.3313501 18.95509277 -2.24473145 19.58206055 -3.18579102 20.22802734 C-4.17635498 20.89527832 -5.16691895 21.5625293 -6.1875 22.25 C-8.28400026 23.68468237 -10.38035011 25.11958455 -12.4765625 26.5546875 C-13.55583008 27.28913086 -14.63509766 28.02357422 -15.74707031 28.78027344 C-20.87484128 32.27934981 -25.96865261 35.82680154 -31.0625 39.375 C-32.01608398 40.03790039 -32.96966797 40.70080078 -33.95214844 41.38378906 C-41.34563742 46.52809274 -48.69385637 51.7324857 -56 57 C-59.73630887 55.53945665 -61.07504309 53.75756236 -63.05078125 50.31640625 C-63.58380859 49.38892578 -64.11683594 48.46144531 -64.66601562 47.50585938 C-65.20935547 46.53455078 -65.75269531 45.56324219 -66.3125 44.5625 C-66.87517578 43.59505859 -67.43785156 42.62761719 -68.01757812 41.63085938 C-71.07403036 36.23998095 -71.07403036 36.23998095 -72 34 C-71 31 -71 31 -68.22216797 29.36523438 C-66.98388261 28.76423931 -65.74007025 28.1745549 -64.4921875 27.59375 C-63.82302307 27.27243607 -63.15385864 26.95112213 -62.4644165 26.62007141 C-60.27242713 25.57034659 -58.07390431 24.5351508 -55.875 23.5 C-54.36528079 22.78046739 -52.85600512 22.06000347 -51.34716797 21.33862305 C-48.32186019 19.89403158 -45.29400236 18.45502078 -42.26367188 17.02099609 C-38.52855433 15.25274452 -34.80164751 13.46832176 -31.078125 11.67578125 C-21.06314135 6.85768499 -21.06314135 6.85768499 -17.51660156 5.18994141 C-15.69329069 4.32781324 -13.87854512 3.44749382 -12.06933594 2.55615234 C-11.09512695 2.08773926 -10.12091797 1.61932617 -9.1171875 1.13671875 C-8.23401855 0.70447998 -7.35084961 0.27224121 -6.44091797 -0.1730957 C-3.73334281 -1.09033486 -2.59911991 -1.13374914 0 0 Z " fill="#FABE07" transform="translate(112,305)"/>
<path d="M0 0 C3.67762756 0.64400109 6.17384547 2.24792741 9.25390625 4.31640625 C10.27419922 4.99896484 11.29449219 5.68152344 12.34570312 6.38476562 C13.40724609 7.10341797 14.46878906 7.82207031 15.5625 8.5625 C17.11420898 9.59987305 17.11420898 9.59987305 18.69726562 10.65820312 C23.69775138 14.01795342 28.63700139 17.43715282 33.4921875 21.00390625 C39.38595903 25.32706875 45.4587516 29.35610204 51.5625 33.375 C53.69020754 34.77651447 55.8165805 36.18005781 57.94140625 37.5859375 C58.86638916 38.1948584 59.79137207 38.8037793 60.74438477 39.43115234 C63 41 63 41 65 43 C64.67459897 47.06405122 63.07616254 49.89974062 60.9375 53.3125 C60.38964844 54.19550781 59.84179688 55.07851562 59.27734375 55.98828125 C58.85582031 56.65214844 58.43429688 57.31601563 58 58 C53.10490414 56.49668376 48.61565706 54.50222672 44.015625 52.2890625 C43.25007797 51.92449448 42.48453094 51.55992645 41.69578552 51.18431091 C39.21230785 50.00109022 36.73107929 48.81324059 34.25 47.625 C30.82524511 45.98872777 27.39935495 44.35485362 23.97265625 42.72265625 C23.12302811 42.31778488 22.27339996 41.91291351 21.39802551 41.49577332 C16.20349691 39.02715355 10.98958604 36.60882581 5.74609375 34.24609375 C5.13180511 33.96822021 4.51751648 33.69034668 3.88461304 33.40405273 C1.06366026 32.12898726 -1.76134279 30.86492103 -4.59472656 29.61767578 C-5.57022461 29.17794434 -6.54572266 28.73821289 -7.55078125 28.28515625 C-8.39294189 27.91269775 -9.23510254 27.54023926 -10.1027832 27.15649414 C-12 26 -12 26 -13 23 C-11.92016602 20.5480957 -11.92016602 20.5480957 -10.25390625 17.67578125 C-9.66416016 16.64775391 -9.07441406 15.61972656 -8.46679688 14.56054688 C-7.52416992 12.95276367 -7.52416992 12.95276367 -6.5625 11.3125 C-5.62567383 9.68731445 -5.62567383 9.68731445 -4.66992188 8.02929688 C-3.12226845 5.34748521 -1.56535683 2.67150439 0 0 Z " fill="#FABE07" transform="translate(53,116)"/>
<path d="M0 0 C5.00310051 1.79624501 9.54953829 4.37237034 14.1875 6.9375 C15.00669922 7.38029297 15.82589844 7.82308594 16.66992188 8.27929688 C17.84458008 8.92801758 17.84458008 8.92801758 19.04296875 9.58984375 C19.75477295 9.98034912 20.46657715 10.37085449 21.19995117 10.77319336 C23 12 23 12 25 15 C17.95331609 25.77864479 10.55074173 36.30951498 3.18164062 46.86865234 C0.96469328 50.05067637 -1.24520922 53.23748496 -3.453125 56.42578125 C-4.17306641 57.46436279 -4.89300781 58.50294434 -5.63476562 59.57299805 C-7.01496991 61.56444931 -8.39393437 63.55676059 -9.77148438 65.55004883 C-12.72660864 69.80923937 -15.67308425 74.01778267 -19 78 C-23.9723422 76.50829734 -28.41845739 74.39542583 -33 72 C-32.35816662 67.51252839 -30.62981049 63.7323894 -28.67578125 59.69140625 C-28.33741745 58.97986389 -27.99905365 58.26832153 -27.6504364 57.53521729 C-26.54283475 55.20853484 -25.42767791 52.88555929 -24.3125 50.5625 C-23.15661479 48.13964604 -22.00265934 45.71587938 -20.84884644 43.29203796 C-20.0637731 41.64306534 -19.27806256 39.99439595 -18.49172974 38.34602356 C-15.89796259 32.90477084 -13.33282458 27.4509907 -10.79296875 21.984375 C-10.46798904 21.28509384 -10.14300934 20.58581268 -9.80818176 19.86534119 C-8.56673067 17.19207961 -7.32639045 14.51831403 -6.08926392 11.8430481 C-5.24880322 10.02604494 -4.40572437 8.2102535 -3.5625 6.39453125 C-3.08941406 5.37206299 -2.61632812 4.34959473 -2.12890625 3.29614258 C-1 1 -1 1 0 0 Z " fill="#FABE07" transform="translate(337,40)"/>
<path d="M0 0 C3 1 3 1 4.55541992 3.69506836 C5.12439506 4.90505375 5.68187005 6.12048456 6.23046875 7.33984375 C6.53838348 8.00153564 6.84629822 8.66322754 7.1635437 9.3449707 C8.18144442 11.53804571 9.18458963 13.73753418 10.1875 15.9375 C10.88957085 17.4601657 11.59262759 18.98237718 12.29663086 20.50415039 C13.39615444 22.88115539 14.49485613 25.25850428 15.5896759 27.63768005 C18.22447106 33.35663105 20.92060915 39.0436585 23.6484375 44.71875 C24.76009251 47.04089749 25.87112026 49.36334431 26.98208618 51.68582153 C27.70169428 53.18554879 28.42432753 54.68382829 29.1499939 56.18063354 C30.16239928 58.27118872 31.16253329 60.36720355 32.16015625 62.46484375 C32.46452606 63.08520508 32.76889587 63.70556641 33.08248901 64.34472656 C35.11388999 68.65833002 35.11388999 68.65833002 34 72 C31.27734375 73.82421875 31.27734375 73.82421875 27.9375 75.6875 C26.28041016 76.62142578 26.28041016 76.62142578 24.58984375 77.57421875 C23.30787109 78.27998047 23.30787109 78.27998047 22 79 C17.99874836 75.38934674 15.22650904 71.13374894 12.25 66.6875 C11.09071356 64.97467138 9.9305161 63.26245911 8.76953125 61.55078125 C8.15803223 60.6479541 7.5465332 59.74512695 6.91650391 58.81494141 C3.62362075 53.97838819 0.28084037 49.17675058 -3.0625 44.375 C-4.06651855 42.92951782 -4.06651855 42.92951782 -5.09082031 41.45483398 C-8.25769306 36.90293599 -11.4431999 32.3671015 -14.68359375 27.8671875 C-15.52748657 26.6908374 -15.52748657 26.6908374 -16.38842773 25.49072266 C-17.43512616 24.03539798 -18.48770738 22.5842798 -19.54711914 21.13818359 C-23 16.33264651 -23 16.33264651 -23 13 C-22.48091064 12.71278076 -21.96182129 12.42556152 -21.42700195 12.12963867 C-19.05499613 10.8165026 -16.68374289 9.50201321 -14.3125 8.1875 C-13.49587891 7.73568359 -12.67925781 7.28386719 -11.83789062 6.81835938 C-11.04189453 6.37685547 -10.24589844 5.93535156 -9.42578125 5.48046875 C-8.65443848 5.05427246 -7.8830957 4.62807617 -7.08837891 4.18896484 C-5.39211965 3.22324324 -3.74066425 2.17913742 -2.10546875 1.11328125 C-1.41066406 0.74589844 -0.71585938 0.37851562 0 0 Z " fill="#FABE07" transform="translate(139,40)"/>
<path d="M0 0 C15.56906783 -0.37268864 30.95071183 0.97817224 46.44458008 2.31781006 C50.01144211 2.62464243 53.57899176 2.92326113 57.14648438 3.22265625 C64.09833766 3.80725373 71.04933542 4.40143606 78 5 C78 10.61 78 16.22 78 22 C63.80860525 23.38266539 49.61114774 24.66914422 35.40234375 25.85986328 C32.21062841 26.12831146 29.01939222 26.40206348 25.828125 26.67578125 C23.76565231 26.84928324 21.70315324 27.02247205 19.640625 27.1953125 C18.70301331 27.27653351 17.76540161 27.35775452 16.79937744 27.44143677 C15.90684265 27.51506439 15.01430786 27.58869202 14.09472656 27.66455078 C13.32533752 27.72957794 12.55594849 27.7946051 11.76324463 27.86160278 C7.84680086 28.05775802 3.92135291 28 0 28 C0 18.76 0 9.52 0 0 Z " fill="#FBBF07" transform="translate(17,225)"/>
<path d="M0 0 C9.24 0 18.48 0 28 0 C27.3223591 17.15911378 25.95732219 34.20947655 24.4375 51.3125 C24.20032342 54.01099361 23.9644056 56.70959678 23.72851562 59.40820312 C23.15668197 65.93919116 22.57978139 72.46971292 22 79 C16.72 79 11.44 79 6 79 C4.48883359 65.96448796 3.23150594 52.92551205 2.14013672 39.84838867 C1.87385127 36.67380511 1.59914376 33.50001748 1.32421875 30.32617188 C1.1505278 28.26306403 0.97733336 26.19991431 0.8046875 24.13671875 C0.72346649 23.21034103 0.64224548 22.28396332 0.55856323 21.32951355 C-0.02777991 14.1469905 0 7.2761882 0 0 Z " fill="#FBBE07" transform="translate(225,17)"/>
</svg>
